<svg version="1.1" id="Layer_1" xmlns="http://www.w3.org/2000/svg" xmlns:xlink="http://www.w3.org/1999/xlink" x="0px" y="0px"
	 width="100%" viewBox="0 0 608 608" enable-background="new 0 0 608 608" xml:space="preserve">
<rect width="100%" height="100%" fill="#fff6bd"/>
	<path fill="#19346b" opacity="1.000000" stroke="none"
		  d="
M280.238708,385.288879
    C273.936310,389.091919 267.876770,392.597687 262.005585,396.394684
    C259.552490,397.981140 257.685791,397.938873 255.212708,396.412750
    C226.009247,378.390472 196.743759,360.468719 167.493851,342.521729
    C148.325882,330.760773 129.156616,319.001953 109.988289,307.241577
    C108.426308,306.283234 106.827171,305.379059 105.313301,304.349731
    C98.000587,299.377502 97.428177,290.227722 104.948273,285.806091
    C136.086533,267.497589 166.837860,247.648087 203.824570,243.532944
    C227.811478,240.864166 249.846024,233.141479 270.989868,222.339890
    C283.288605,216.056900 295.168091,208.916061 307.008026,201.782425
    C319.212311,194.429260 331.113342,194.248810 344.013306,200.404099
    C391.216888,222.927582 438.627960,245.016052 485.950623,267.290131
    C495.744476,271.899963 505.728333,276.173950 515.219238,281.346527
    C540.788635,295.281982 544.179443,329.692535 521.856628,348.331360
    C509.327148,358.793060 494.828613,363.116821 478.548248,359.998871
    C463.949127,357.202911 452.081482,345.401825 450.025391,331.937408
    C447.635315,316.285828 455.140045,301.083618 469.682159,293.663116
    C482.084473,287.334442 494.831055,285.957001 507.116486,294.240875
    C516.183899,300.354828 520.742188,314.969238 516.995483,325.014618
    C512.993042,335.745361 502.512207,341.647369 490.037476,340.195251
    C481.476501,339.198700 475.347015,332.357941 475.830261,324.339325
    C476.262268,317.171265 482.987762,310.710266 489.981110,310.744965
    C498.490082,310.787231 502.274628,316.853729 498.527008,324.444946
    C497.406769,326.714203 495.829224,329.318573 499.003876,330.909058
    C501.939697,332.379883 503.557770,329.834229 504.910767,327.721313
    C511.575592,317.312958 506.037903,306.214630 493.038849,303.844452
    C484.304169,302.251862 474.970520,307.188385 470.322205,315.859253
    C466.173462,323.598206 467.359131,334.863098 473.636749,340.412476
    C481.744720,347.579865 491.514771,349.081024 501.739319,346.266388
    C518.708191,341.595154 527.527710,328.929565 525.645508,312.619141
    C523.633423,295.182861 510.533691,282.934418 493.389923,282.151276
    C473.570770,281.245941 458.067566,288.636414 447.315460,305.502960
    C446.045441,307.495209 444.459412,309.105133 442.503387,310.483429
    C429.432037,319.694244 416.522278,329.137726 403.357849,338.212341
    C389.043304,348.079681 372.806671,353.627899 356.235260,358.291321
    C346.775970,360.953278 337.124664,362.700684 327.477966,364.541351
    C313.393066,367.228851 300.872070,373.989716 288.351227,380.618347
    C285.703094,382.020325 283.152954,383.607422 280.238708,385.288879
M389.181000,328.661713
    C403.774170,320.519714 416.942657,310.286194 430.433990,300.528595
    C431.501587,299.756470 432.495850,298.824402 433.335297,297.810272
    C434.369446,296.561096 434.665100,295.075958 433.566101,293.683319
    C432.494080,292.324890 431.055634,292.080139 429.539215,292.860382
    C428.361298,293.466431 427.171967,294.111298 426.140198,294.930908
    C413.470490,304.995148 400.263214,314.327362 386.310455,322.483307
    C371.484833,331.149445 356.257812,339.087646 338.802643,341.247925
    C316.471558,344.011658 295.786194,351.390594 276.889435,363.624847
    C274.193298,365.370392 271.794495,366.226654 268.563263,364.999786
    C264.599396,363.494781 259.956726,363.021118 256.296692,364.595215
    C250.464432,367.103607 246.434006,364.863068 242.183960,361.680817
    C240.988083,360.785431 239.648224,360.083679 238.383682,359.278564
    C211.689682,342.282593 185.023605,325.242523 158.272507,308.336945
    C154.690033,306.072968 152.770248,304.157867 155.317032,299.650665
    C157.578720,295.647949 157.736725,290.822876 155.974991,286.549438
    C154.325150,282.547394 155.782806,280.978180 159.186935,279.321014
    C176.266388,271.006531 194.421707,265.994995 212.975006,262.842682
    C251.298584,256.331238 285.796753,241.003235 317.698700,219.275528
    C319.765839,217.867661 323.078156,216.295227 321.007904,213.124268
    C319.005432,210.057114 316.306915,212.103653 314.052673,213.566422
    C313.075806,214.200317 312.169434,214.942490 311.195679,215.581589
    C286.954559,231.491364 261.251648,244.264542 233.063904,251.571152
    C216.632202,255.830460 199.677689,257.769043 183.384903,262.715851
    C171.394623,266.356323 159.679230,270.578888 148.961243,277.197174
    C145.941299,279.061981 144.035782,281.365448 146.692673,284.925873
    C150.686844,290.278290 149.517227,295.514130 146.463028,300.779266
    C142.997925,306.752777 143.139633,307.292084 148.914093,310.989502
    C180.474106,331.197327 212.067520,351.353271 243.568161,371.653229
    C247.078293,373.915283 250.164993,374.188141 253.801453,372.282227
    C258.207153,369.973022 262.996460,369.929504 267.294281,372.135254
    C271.745819,374.419922 275.056427,373.198700 278.756958,370.626465
    C292.870758,360.815918 308.346863,353.614105 325.237457,350.722290
    C347.608673,346.892120 369.074829,341.034210 389.181000,328.661713
z"/>
	<path fill="#19346b" opacity="1.000000" stroke="none"
		  d="
M240.765762,396.157745
    C242.517807,397.854065 241.652695,399.114441 240.668442,400.318787
    C234.296478,408.115753 227.167999,414.998657 217.781036,419.127289
    C214.651215,420.503906 211.413895,421.210571 209.665726,417.384277
    C207.897324,413.513702 210.640091,411.636230 213.725998,410.182495
    C220.159683,407.151703 225.723450,402.779785 229.983459,397.253326
    C233.471649,392.728149 236.477997,392.410858 240.765762,396.157745
z"/>
	<path fill="#19346b" opacity="1.000000" stroke="none"
		  d="
M216.440491,381.533142
    C219.276886,383.579224 217.574097,385.170105 216.429504,386.753082
    C210.532410,394.908844 202.787949,400.648529 193.473953,404.375732
    C190.435089,405.591797 188.272614,404.631439 186.813583,401.942963
    C185.302124,399.157928 186.561966,396.819397 189.001297,395.703827
    C197.001526,392.045135 203.729202,386.989441 209.189743,380.006500
    C211.588409,376.939056 213.835434,380.600159 216.440491,381.533142
z"/>
	<path fill="#19346b" opacity="1.000000" stroke="none"
		  d="
M171.051788,377.059631
    C175.833527,374.877991 179.655380,371.988953 183.059097,368.516632
    C188.197800,363.274292 189.410446,363.329224 194.984863,369.288788
    C189.195328,378.474426 180.681870,384.182526 170.677689,387.898132
    C168.104462,388.853882 165.611313,388.203125 164.363815,385.469208
    C162.978882,382.434174 164.485703,380.376068 167.121704,378.943878
    C168.287659,378.310394 169.515152,377.790192 171.051788,377.059631
z"/>
	<path fill="#19346b" opacity="1.000000" stroke="none"
		  d="
M160.948883,365.053375
    C157.434326,366.974640 154.294006,368.839935 151.011002,370.406128
    C147.994904,371.845001 144.960403,371.701752 143.359283,368.337311
    C141.799194,365.059143 143.829559,362.812714 146.651840,361.653900
    C152.446686,359.274597 157.291321,355.727997 161.538208,351.158020
    C164.892654,347.548401 167.249451,351.391357 169.581131,352.867554
    C172.193527,354.521484 170.105148,356.331177 168.859894,357.759552
    C166.574677,360.380768 164.210358,362.944092 160.948883,365.053375
z"/>
	<path fill="#19346b" opacity="1.000000" stroke="none"
		  d="
M136.328003,335.301544
    C141.047928,333.166595 143.000595,337.031769 146.568237,339.054321
    C140.143417,345.109863 133.886719,350.471497 127.045906,355.096558
    C124.834633,356.591583 122.472099,355.700897 120.867958,353.599792
    C119.083939,351.263092 120.005318,349.007355 121.865051,347.374207
    C126.493729,343.309540 131.311600,339.460297 136.328003,335.301544
z"/>
	<path fill="#19346b" opacity="1.000000" stroke="none"
		  d="
M105.715454,326.750946
    C107.507149,325.488525 109.034584,324.471954 110.470322,323.339172
    C116.198166,318.819946 116.736198,318.853760 122.714363,324.841827
    C117.460648,331.271362 110.860786,335.724304 102.980911,338.265015
    C100.505798,339.063049 98.272652,337.937531 97.281525,335.434296
    C96.311523,332.984436 97.791855,331.221375 99.687958,329.984894
    C101.489838,328.809814 103.493896,327.944763 105.715454,326.750946
z"/>
	<path fill="#19346b" opacity="1.000000" stroke="none"
		  d="
M75.051743,320.112335
    C73.954277,316.301605 75.626945,314.158539 78.519646,312.498962
    C82.542755,310.190796 86.679001,308.038910 90.161278,304.895447
    C93.795311,301.614929 94.846672,305.777283 96.789917,307.238556
    C99.319542,309.140717 98.233727,310.782928 96.379845,312.471222
    C92.166351,316.308350 87.327354,319.180481 82.302399,321.762634
    C79.660080,323.120422 77.175613,323.013245 75.051743,320.112335
z"/>
	<path fill="#19346b" opacity="1.000000" stroke="none"
		  d="
M436.721985,339.380035
    C424.227264,331.552856 424.209290,331.364258 435.914185,323.258270
    C437.486084,322.169617 438.796509,320.393982 441.778107,320.820160
    C442.424927,327.613892 441.846649,334.709290 444.597198,341.543884
    C441.155609,342.343536 439.244446,340.441406 436.721985,339.380035
z"/>
</svg>